<?xml version="1.0" ?><svg viewBox="0 0 64 64" xmlns="http://www.w3.org/2000/svg"><defs><style>.cls-1{fill:#f23d6c;}.cls-2{fill:#ec1d57;}.cls-3{fill:#fe8657;}.cls-4{fill:#fe4a13;}.cls-5{fill:#6cc5ef;}.cls-6{fill:#e6e5e1;}.cls-7{fill:#cac7c1;}.cls-8{fill:#a6a299;}.cls-9{fill:#16244d;}</style></defs><g id="Comet"><path class="cls-1" d="M53.53,35.11A24.77,24.77,0,1,1,28.77,10.34,24.76,24.76,0,0,1,53.53,35.11Z" id="path3762-3-4"/><path class="cls-2" d="M28.77,10.34a25.85,25.85,0,0,0-3.29.22,24.77,24.77,0,0,1,0,49.1,24.14,24.14,0,0,0,3.29.22,24.77,24.77,0,0,0,0-49.54Z" id="path3739-8"/><path class="cls-3" d="M22.82,11.07a24.7,24.7,0,0,0-12.26,7.25,7.42,7.42,0,1,0,12.26-7.25Zm16.67,1.72a11.82,11.82,0,0,0,13.83,19,24.93,24.93,0,0,0-2.56-8.11,4,4,0,1,1-4.35-6,24.37,24.37,0,0,0-6.92-4.94ZM29.79,27.1a3,3,0,1,0,3,3A3,3,0,0,0,29.79,27.1Zm-16.69.71a2.16,2.16,0,0,0-.38,4.28,7.53,7.53,0,1,1-6.8,12.59A24.61,24.61,0,0,0,10,51.25a11.84,11.84,0,0,0,3.5-23.41,2.43,2.43,0,0,0-.38,0Zm-2,7.9a4.09,4.09,0,0,0-3.69,3.22,4,4,0,0,0,7.93,1.28,4,4,0,0,0-3.48-4.5,4.82,4.82,0,0,0-.76,0Zm29,3.21a11.83,11.83,0,0,0-7.75,20.7A24.59,24.59,0,0,0,38.18,58a7.53,7.53,0,1,1,9.54-7A24.94,24.94,0,0,0,51,46a11.85,11.85,0,0,0-8.54-6.84,12.14,12.14,0,0,0-2.38-.23ZM39.91,47a3.93,3.93,0,1,0,.77,0,4,4,0,0,0-.77,0Zm-18.6,7.39a4,4,0,0,0-3.81,2.76,24.09,24.09,0,0,0,7.67,2.44,4.26,4.26,0,0,0,.17-1.18,4,4,0,0,0-4-4Z" id="path3818-7-8"/><path class="cls-4" d="M39.49,12.79a11.69,11.69,0,0,0-2.23,2.67,24.94,24.94,0,0,1,6.12,6.82,4.48,4.48,0,0,1-.06-.64,4,4,0,0,1,3.09-3.91,24.37,24.37,0,0,0-6.92-4.94ZM50.76,23.72a4,4,0,0,1-3.43,1.93,4,4,0,0,1-2.72-1.08,24.78,24.78,0,0,1,2.29,8.89l.43,0a11.75,11.75,0,0,0,6-1.65,24.93,24.93,0,0,0-2.56-8.11ZM46.33,40.65a24.4,24.4,0,0,1-1.39,4.26,7.51,7.51,0,0,1,2.78,6.15A24.94,24.94,0,0,0,51,46a12,12,0,0,0-4.69-5.34Zm-3.19,7.68A25.08,25.08,0,0,1,38,54.15a4,4,0,0,0,6.09-2.61,3.7,3.7,0,0,0-1-3.21Zm-8.08,8a24.11,24.11,0,0,1-4,2,12.21,12.21,0,0,0,1.31,1.38A24.59,24.59,0,0,0,38.18,58a7.49,7.49,0,0,1-3.12-1.74Z" id="path3755-8"/><path class="cls-5" d="M60,4.2s-7.5,23.55-11.94,28a11.35,11.35,0,0,1-16-16C36.45,11.7,60,4.2,60,4.2Z" id="path4285-9"/><path class="cls-6" d="M41.94,17.05a7.35,7.35,0,1,1-9,5.2A7.37,7.37,0,0,1,41.94,17.05Z" id="path4287-7"/><path class="cls-7" d="M45.1,18.82a7.3,7.3,0,0,0-3.16-1.77c-.31-.08-.63-.13-.95-.18A7.34,7.34,0,0,1,35.8,30.15a7.22,7.22,0,0,0,2.34,1.11,7.35,7.35,0,0,0,7-12.44Z" id="path5796"/><path class="cls-7" d="M47.11,26.15l0-.09a7.35,7.35,0,0,0-3.4-8.26,4.75,4.75,0,0,0-1.48,2.37l0,.08A4.75,4.75,0,0,0,45.62,26a4.7,4.7,0,0,0,1.49.15Z" id="path4289-7"/><path class="cls-8" d="M45.6,19.35a7.18,7.18,0,0,0-1.86-1.55,4.9,4.9,0,0,0-.87,1,7.29,7.29,0,0,1,1,6c0,.08-.05.16-.07.24a4.62,4.62,0,0,0,1.84,1,4.7,4.7,0,0,0,1.49.15l0-.09A7.33,7.33,0,0,0,45.6,19.35Z" id="path5823"/><path class="cls-9" d="M6.44,38.76a5,5,0,0,0,4.09,5.68,4.4,4.4,0,0,0,.89.08,5,5,0,0,0,4.93-4.14,4.72,4.72,0,0,0-1-3.68,5,5,0,0,0-3.42-2A5.15,5.15,0,0,0,6.44,38.76Zm2,.35a3.13,3.13,0,0,1,3.36-2.4,3,3,0,0,1,2,1.21A2.7,2.7,0,0,1,14.37,40a3,3,0,0,1-3.49,2.44A3,3,0,0,1,8.42,39.11Z"/><path class="cls-9" d="M60.63,3.41a1,1,0,0,0-1-.24,224.83,224.83,0,0,0-21.33,8,25.44,25.44,0,0,0-9.52-1.84A25.79,25.79,0,1,0,52.82,25.87,228.38,228.38,0,0,0,60.88,4.43,1,1,0,0,0,60.63,3.41ZM22.51,12.19a6.4,6.4,0,0,1-4.76,10.69h0a6.42,6.42,0,0,1-6-4.29A23.72,23.72,0,0,1,22.51,12.19ZM12.9,31.1A1.16,1.16,0,0,1,12,29.76a1.17,1.17,0,0,1,1.35-.93,10.83,10.83,0,0,1-2.83,21.45,24,24,0,0,1-2-2.76,8.14,8.14,0,0,0,1.41.39,8.54,8.54,0,1,0,3-16.81ZM24.34,58.46a23.48,23.48,0,0,1-5.5-1.74,3,3,0,0,1,2.48-1.31h0a3,3,0,0,1,3,3Zm11.18-.55a24,24,0,0,1-2.82.64,10.82,10.82,0,0,1,7.41-18.63,11.42,11.42,0,0,1,2.18.21A10.88,10.88,0,0,1,49.9,46a23.86,23.86,0,0,1-1.48,2.48,8.54,8.54,0,1,0-12.9,9.43Zm6.36-4.64a3,3,0,0,1-4.64-3.08h0a3.06,3.06,0,0,1,3-2.18h.3a2.94,2.94,0,0,1,2,1.21,2.67,2.67,0,0,1,.54,2.12A3,3,0,0,1,41.88,53.27Zm3-.68a4.77,4.77,0,0,0,.26-.86,4.7,4.7,0,0,0-.91-3.7,5,5,0,0,0-3.44-2,5.09,5.09,0,0,0-5.5,3.77,5,5,0,0,0,4,5.89,4.59,4.59,0,0,0,1,.1c.11,0,.21,0,.32,0A24.09,24.09,0,0,1,38.15,57,6.52,6.52,0,1,1,46.7,50.7c-.36.41-.73.82-1.13,1.22C45.34,52.15,45.1,52.37,44.86,52.59Zm6-8.83a12.81,12.81,0,0,0-8.24-5.6,12.46,12.46,0,0,0-2.58-.24,12.82,12.82,0,0,0-9.86,20.91c-.48,0-1,.05-1.46.05-.82,0-1.64-.05-2.45-.13,0-.11,0-.21,0-.32a5,5,0,0,0-5-5h0a5,5,0,0,0-4.25,2.4,24.33,24.33,0,0,1-4.7-3.5,12.84,12.84,0,0,0,1.3-25.45,3.52,3.52,0,0,0-.56,0,3.15,3.15,0,0,0-.55,6.26,6.53,6.53,0,1,1-5.8,11,23.76,23.76,0,0,1,3.48-23.82,8.48,8.48,0,0,0,7.51,4.63h0a8.44,8.44,0,0,0,8.41-8.42,8.33,8.33,0,0,0-1.48-4.76,23,23,0,0,1,4.09-.36,23.6,23.6,0,0,1,7,1.05,19.53,19.53,0,0,0-4.54,2.95A12.32,12.32,0,0,0,27.89,26.6a4,4,0,0,0-2.12,3.52A4,4,0,0,0,32,33.49a12.3,12.3,0,0,0,14.4,1.13c.32,0,.63.05.95.05a12.81,12.81,0,0,0,5.13-1.09c0,.51.07,1,.07,1.53A23.77,23.77,0,0,1,50.91,43.76ZM28.48,28.6a11.9,11.9,0,0,0,2,3.41,1.91,1.91,0,0,1-.71.14,2,2,0,0,1-2-2A2,2,0,0,1,28.48,28.6Zm23.75,2.87A10.88,10.88,0,0,1,49,32.52a20.63,20.63,0,0,0,2.61-4.1A24.36,24.36,0,0,1,52.23,31.47Zm-4.95-.07A10.35,10.35,0,1,1,32.65,16.76c3.55-3.55,21-9.52,25.72-11.08C56.81,10.42,50.83,27.85,47.28,31.4Z"/><path class="cls-9" d="M42.13,16A8.36,8.36,0,1,0,37.8,32.15a8.5,8.5,0,0,0,2.16.29A8.37,8.37,0,0,0,47.2,19.9,8.46,8.46,0,0,0,42.13,16ZM38.32,30.22A6.35,6.35,0,1,1,41.61,18l.42.13a5.76,5.76,0,0,0,3.26,8.81l.33.07A6.35,6.35,0,0,1,38.32,30.22ZM46.24,25a3.25,3.25,0,0,1-.43-.08,3.75,3.75,0,0,1-2-5.93,6.4,6.4,0,0,1,2.42,6Z"/></g></svg>